<?xml version="1.0" encoding="UTF-8"?>
<svg xmlns="http://www.w3.org/2000/svg" viewBox="0 0 335 305">
  <defs>
    <style>
      .cls-1 {
        fill: #1d1d1b;
        stroke-width: 0px;
      }
    </style>
  </defs>
  <g id="Capa_1" data-name="Capa 1">
    <path class="cls-1" d="M71.36,239.24c-8.54,2.55-17.08,5.11-25.62,7.66-9.34,2.79-18.41,5.77-28.19,2.29-4.56-1.62-6.52,5.62-1.99,7.23,10.31,3.67,20.51,1.2,30.49-1.79,9.1-2.72,18.2-5.44,27.31-8.17,4.61-1.38,2.65-8.62-1.99-7.23h0Z"/>
    <path class="cls-1" d="M65.67,211.76c-16.42,8.51-34.5,18.31-53.36,19.33-4.8.26-4.83,7.76,0,7.5,20.29-1.1,39.47-11.2,57.15-20.36,4.29-2.22.5-8.7-3.79-6.48h0Z"/>
    <path class="cls-1" d="M105.36,229.07c-5.67,1.69-11.33,3.39-17,5.08-4.61,1.38-2.65,8.62,1.99,7.23,5.67-1.69,11.33-3.39,17-5.08,4.61-1.38,2.65-8.62-1.99-7.23h0Z"/>
    <path class="cls-1" d="M194.17,202.51c-23.18,6.93-46.36,13.86-69.54,20.8-4.61,1.38-2.65,8.62,1.99,7.23,23.18-6.93,46.36-13.86,69.54-20.8,4.61-1.38,2.65-8.62-1.99-7.23h0Z"/>
    <path class="cls-1" d="M327.03,161.61c-34.14,10.55-68.29,21.1-102.43,31.65-4.83,1.49-9.67,2.99-14.5,4.48s-2.64,8.66,1.99,7.23c34.14-10.55,68.29-21.1,102.43-31.65,4.83-1.49,9.67-2.99,14.5-4.48s2.64-8.66-1.99-7.23h0Z"/>
    <path class="cls-1" d="M319.06,133.67c-4.22,1.65-8.44,3.3-12.67,4.94-4.45,1.74-2.51,8.99,1.99,7.23,4.22-1.65,8.44-3.3,12.67-4.94,4.45-1.74,2.51-8.99-1.99-7.23h0Z"/>
    <path class="cls-1" d="M322.3,110.36c-4.22,1.65-8.44,3.3-12.67,4.94-4.45,1.74-2.51,8.99,1.99,7.23,4.22-1.65,8.44-3.3,12.67-4.94,4.45-1.74,2.51-8.99-1.99-7.23h0Z"/>
    <path class="cls-1" d="M49.07,197.65c-5.65,2.21-11.3,4.41-16.95,6.62-4.45,1.74-2.51,8.99,1.99,7.23l16.95-6.62c4.45-1.74,2.51-8.99-1.99-7.23h0Z"/>
    <path class="cls-1" d="M48.02,177.28c-4.22,1.65-8.44,3.3-12.67,4.94-4.45,1.74-2.51,8.99,1.99,7.23,4.22-1.65,8.44-3.3,12.67-4.94,4.45-1.74,2.51-8.99-1.99-7.23h0Z"/>
    <path class="cls-1" d="M16.24,212.01c-3.57,1.48-7.14,2.96-10.72,4.43-1.87.77-3.2,2.49-2.62,4.61.49,1.77,2.73,3.4,4.61,2.62,3.57-1.48,7.14-2.96,10.72-4.43,1.87-.77,3.2-2.49,2.62-4.61-.49-1.77-2.73-3.4-4.61-2.62h0Z"/>
    <path class="cls-1" d="M17.12,190.88c-4.87,1.9-9.73,3.8-14.6,5.7-4.45,1.74-2.51,8.99,1.99,7.23,4.87-1.9,9.73-3.8,14.6-5.7,4.45-1.74,2.51-8.99-1.99-7.23h0Z"/>
    <path class="cls-1" d="M50.28,157.12c-4.22,1.65-8.44,3.3-12.67,4.94-4.45,1.74-2.51,8.99,1.99,7.23,4.22-1.65,8.44-3.3,12.67-4.94,4.45-1.74,2.51-8.99-1.99-7.23h0Z"/>
    <path class="cls-1" d="M19.38,170.72c-4.87,1.9-9.73,3.8-14.6,5.7-4.45,1.74-2.51,8.99,1.99,7.23,4.87-1.9,9.73-3.8,14.6-5.7,4.45-1.74,2.51-8.99-1.99-7.23h0Z"/>
    <g>
      <path class="cls-1" d="M286.38,0c-13.96,0-25.27,11.31-25.27,25.27,0,0-1.41,18.77,25.48,43.73,26-23.77,25.06-43.73,25.06-43.73,0-13.96-11.31-25.27-25.27-25.27ZM286.44,40.66c-8.46,0-15.33-6.86-15.33-15.33s6.86-15.33,15.33-15.33,15.33,6.86,15.33,15.33-6.86,15.33-15.33,15.33Z"/>
      <circle class="cls-1" cx="286.38" cy="25.27" r="6.51"/>
    </g>
  </g>
  <g id="Capa_4" data-name="Capa 4">
    <path class="cls-1" d="M273.12,100.91c-.18-16.54-11.98-30.66-28.22-33.78l-27.57-4.53c-12.66-2.08-27.21,2.29-37.41,10.06l-104.33,73.28c-5.2,3.65-8.18,9.71-7.89,16.06l.4,32.08c.22,4.81,4.76,10.51,10.35,8.2l113.68-50.3h0s63.99,8.9,63.99,8.9c9.31,1.29,17.59-5.99,17.48-15.39l-.48-44.58ZM104.2,163.57l-21.01,11.33c-2.43,1.35-5.42-.39-5.46-3.16l.05-16.09c-.02-1.26.61-2.44,1.66-3.13l19.72-12.32c2.37-1.55,5.52.05,5.68,2.87l1.24,17.08c.08,1.41-.65,2.74-1.89,3.42ZM124.98,178.13c0,.82-.45,1.57-1.17,1.96l-6.56,3.52c-1.48.8-3.28-.28-3.28-1.96v-54.54c0-.82.45-1.57,1.17-1.96l6.56-3.52c1.48-.8,3.28.28,3.28,1.96v54.54ZM140.8,170.31c0,.82-.45,1.57-1.17,1.96l-6.56,3.52c-1.48.8-3.28-.28-3.28-1.96v-54.54c0-.82.45-1.57,1.17-1.96l6.56-3.52c1.48-.8,3.28.28,3.28,1.96v54.54ZM176.31,127.52l-18.73,9.52c-2.48,1.26-5.4-.58-5.34-3.36l.63-28.8c.03-1.26.7-2.41,1.77-3.07l17.48-10.56c2.42-1.46,5.52.24,5.57,3.07l.61,29.84c.03,1.41-.75,2.71-2.01,3.35ZM196.88,97.5l.49-13.04c1.48-9.5,9.03-14.15,17.68-13.19l32.92,7.02c9,2.81,15.53,10.3,15.94,19.11l.31,17.81c.24,5.19-4.77,9.48-10.04,8.48l-45.5-9.07c-7.81-1.49-13.24-9.56-11.79-17.11ZM206.3,145.67c-5.33,0-9.66-4.32-9.66-9.66s4.32-9.66,9.66-9.66,9.66,4.32,9.66,9.66-4.32,9.66-9.66,9.66ZM256.73,152.54c-4.85,0-8.79-3.93-8.79-8.79s3.93-8.79,8.79-8.79,8.79,3.93,8.79,8.79-3.93,8.79-8.79,8.79Z"/>
    <path class="cls-1" d="M101.95,208.18c-4.16-3.01-4.73-8.28-4.73-8.28l14.47-6.01s.53,4.67-.44,10.27c-.79,4.5-5.98,6.42-9.3,4.02Z"/>
    <path class="cls-1" d="M156.27,187.37c-4.16-3.01-4.95-11.37-4.95-11.37l14.47-6.01s.76,7.76-.22,13.36c-.79,4.5-5.98,6.42-9.3,4.02Z"/>
    <path class="cls-1" d="M84.46,215.33c-4.16-3.01-4.73-8.28-4.73-8.28l14.47-6.01s.53,4.67-.44,10.27c-.79,4.5-5.98,6.42-9.3,4.02Z"/>
    <path class="cls-1" d="M175.72,181.24c-3.49-3.76-3.11-12.77-3.11-12.77l14.72-6.17s2.08,8.49-1.44,16.05c-1.93,4.14-7.39,5.89-10.18,2.89Z"/>
    <path class="cls-1" d="M210.37,173.03h-14.8s0-10.67,0-10.67l23.91,2.87c-.15,5.33-4.57,7.8-9.11,7.8Z"/>
    <path class="cls-1" d="M224.94,173.15l-1.36-7.09,22,2.91c-.15,5.33-20.64,4.18-20.64,4.18Z"/>
    <g>
      <path class="cls-1" d="M126.86,190.64l-10.92,4.83c.07,2.06.04,5.41-.61,9.15-.57,3.28-2.76,5.99-5.85,7.25-1.18.48-2.42.72-3.63.72-1.9,0-3.75-.58-5.32-1.71h0c-.89-.64-1.63-1.35-2.29-2.09-.1.96-.23,1.96-.41,2.99-.58,3.29-2.76,5.99-5.85,7.25-1.18.48-2.41.72-3.63.72-1.9,0-3.75-.58-5.32-1.71-2.58-1.87-4.09-4.32-4.97-6.42-.77.12-1.54.19-2.3.19-2.89,0-5.74-.82-8.29-2.44-3.63-2.31-6.39-6.11-7.7-10.34,1.21,11.37,3.39,21.87,6.53,31.49l64.73-19c-2.12-5.64-3.48-12.4-4.18-20.88Z"/>
      <polygon class="cls-1" points="58.87 146.59 126.34 99.2 126.4 24.71 58.75 24.71 58.87 146.59"/>
      <path class="cls-1" d="M256.82,143.76c0-.12-.1-.21-.21-.21s-.21.1-.21.21c0,.24.43.24.43,0Z"/>
      <path class="cls-1" d="M293.13,75.12c-3.53,3.62-9.36,3.6-12.89-.02-23.62-24.28-27.57-43.37-28.19-50.38h-26.43l-.02,30.15,20.87,3.43c20.36,3.91,35.29,21.79,35.52,42.52l.48,44.58c.08,7.1-2.94,13.86-8.27,18.56-5.33,4.69-12.42,6.82-19.46,5.84l-6.15-.86v.46c-.04.98-.37,2.42-1.78,3.71-3.21,2.95-11.33,3.51-17.06,3.51-1.69,0-3.17-.05-4.25-.1,0,2.54.01,4.96.01,7.26l71.5-20.99.07-91.92c-1.26,1.4-2.56,2.81-3.95,4.24Z"/>
      <path class="cls-1" d="M216.04,225.83c-10.3,11.84-19.08,15.79-37.66,15.79-13.53,0-23.91-3.94-31.8-9.79l-70.52,20.7c4.03,6.96,8.76,13.3,14.2,18.99,21.09,22.08,50.33,33.12,87.74,33.12s66.28-11.04,87.37-33.12c19.14-20.03,29.59-47.95,31.36-83.76l-72.64,21.32c-1.26,6.42-3.63,11.67-8.05,16.75Z"/>
    </g>
    <circle class="cls-1" cx="308.81" cy="241.6" r="6.62"/>
    <circle class="cls-1" cx="318.66" cy="204" r="6.62"/>
  </g>
</svg>