<svg width="306" height="279" xmlns="http://www.w3.org/2000/svg" xmlns:xlink="http://www.w3.org/1999/xlink" xml:space="preserve" overflow="hidden"><g><path d="M65.2769 218.846C57.4649 221.178 49.6529 223.52 41.8409 225.853 33.2971 228.405 25.0002 231.131 16.0539 227.948 11.8827 226.466 10.0897 233.088 14.2336 234.561 23.6647 237.918 32.9952 235.659 42.1244 232.924 50.4487 230.436 58.7729 227.948 67.1064 225.45 71.3234 224.188 69.5305 217.565 65.286 218.837L65.286 218.837Z" fill="#FFFFFF" transform="matrix(1.00172 0 0 1 0.00589198 0.16923)"/><path d="M60.0719 193.708C45.0516 201.493 28.5129 210.457 11.2606 211.391 6.8698 211.628 6.84236 218.489 11.2606 218.251 29.821 217.245 47.366 208.006 63.5388 199.627 67.4631 197.596 63.9962 191.668 60.0719 193.699L60.0719 193.699Z" fill="#FFFFFF" transform="matrix(1.00172 0 0 1 0.00589198 0.16923)"/><path d="M96.3785 209.543C91.1918 211.089 86.0143 212.644 80.8277 214.19 76.6107 215.452 78.4036 222.075 82.648 220.803 87.8347 219.257 93.0122 217.702 98.1989 216.156 102.416 214.894 100.623 208.271 96.3785 209.543L96.3785 209.543Z" fill="#FFFFFF" transform="matrix(1.00172 0 0 1 0.00589198 0.16923)"/><path d="M177.618 185.247C156.414 191.586 135.21 197.925 114.006 204.274 109.789 205.536 111.582 212.159 115.826 210.887 137.03 204.548 158.234 198.209 179.438 191.861 183.655 190.598 181.862 183.975 177.618 185.247L177.618 185.247Z" fill="#FFFFFF" transform="matrix(1.00172 0 0 1 0.00589198 0.16923)"/><path d="M299.152 147.833C267.922 157.484 236.683 167.135 205.454 176.785 201.036 178.148 196.608 179.52 192.19 180.883 187.772 182.246 189.775 188.805 194.01 187.497 225.24 177.846 256.479 168.196 287.708 158.545 292.127 157.182 296.554 155.81 300.972 154.447 305.391 153.084 303.387 146.525 299.152 147.833L299.152 147.833Z" fill="#FFFFFF" transform="matrix(1.00172 0 0 1 0.00589198 0.16923)"/><path d="M291.861 122.275C288.001 123.785 284.141 125.294 280.272 126.794 276.201 128.386 277.975 135.018 282.092 133.408 285.952 131.898 289.812 130.389 293.682 128.889 297.752 127.297 295.978 120.665 291.861 122.275L291.861 122.275Z" fill="#FFFFFF" transform="matrix(1.00172 0 0 1 0.00589198 0.16923)"/><path d="M294.825 100.952C290.965 102.462 287.105 103.971 283.235 105.471 279.165 107.063 280.939 113.695 285.056 112.085 288.916 110.575 292.776 109.066 296.646 107.566 300.716 105.974 298.942 99.3423 294.825 100.952L294.825 100.952Z" fill="#FFFFFF" transform="matrix(1.00172 0 0 1 0.00589198 0.16923)"/><path d="M44.887 180.801C39.7186 182.823 34.5503 184.835 29.3819 186.857 25.3112 188.448 27.0859 195.08 31.2023 193.47L46.7073 187.415C50.778 185.823 49.0034 179.191 44.887 180.801L44.887 180.801Z" fill="#FFFFFF" transform="matrix(1.00172 0 0 1 0.00589198 0.16923)"/><path d="M43.9265 162.168C40.0662 163.677 36.206 165.186 32.3366 166.686 28.2659 168.278 30.0405 174.91 34.1569 173.3 38.0172 171.791 41.8774 170.281 45.7468 168.781 49.8175 167.19 48.0429 160.558 43.9265 162.168L43.9265 162.168Z" fill="#FFFFFF" transform="matrix(1.00172 0 0 1 0.00589198 0.16923)"/><path d="M14.8556 193.937C11.5899 195.291 8.32426 196.645 5.04944 197.989 3.33885 198.694 2.12223 200.267 2.65279 202.206 3.10102 203.826 5.15007 205.317 6.8698 204.603 10.1355 203.249 13.4011 201.895 16.676 200.551 18.3866 199.846 19.6032 198.273 19.0726 196.334 18.6244 194.715 16.5753 193.223 14.8556 193.937L14.8556 193.937Z" fill="#FFFFFF" transform="matrix(1.00172 0 0 1 0.00589198 0.16923)"/><path d="M15.6606 174.608C11.2057 176.346 6.76003 178.084 2.30518 179.822-1.76548 181.414 0.00914754 188.046 4.12554 186.436 8.58039 184.698 13.0261 182.96 17.481 181.222 21.5516 179.63 19.777 172.998 15.6606 174.608L15.6606 174.608Z" fill="#FFFFFF" transform="matrix(1.00172 0 0 1 0.00589198 0.16923)"/><path d="M45.9938 143.726C42.1336 145.236 38.2733 146.745 34.4039 148.245 30.3332 149.837 32.1079 156.469 36.2243 154.859 40.0845 153.349 43.9448 151.84 47.8142 150.34 51.8849 148.748 50.1102 142.116 45.9938 143.726L45.9938 143.726Z" fill="#FFFFFF" transform="matrix(1.00172 0 0 1 0.00589198 0.16923)"/><path d="M17.7279 156.167C13.2731 157.905 8.82738 159.643 4.37252 161.381 0.301869 162.973 2.07649 169.605 6.19289 167.995 10.6477 166.257 15.0934 164.519 19.5483 162.78 23.6189 161.189 21.8443 154.557 17.7279 156.167L17.7279 156.167Z" fill="#FFFFFF" transform="matrix(1.00172 0 0 1 0.00589198 0.16923)"/><path d="M261.967 0C249.197 0 238.851 10.3459 238.851 23.1158 238.851 23.1158 237.562 40.2858 262.159 63.118 285.943 41.3743 285.083 23.1158 285.083 23.1158 285.083 10.3459 274.737 3.24986e-15 261.967 3.24986e-15ZM262.022 37.1939C254.283 37.1939 247.999 30.9187 247.999 23.1707 247.999 15.4228 254.274 9.14754 262.022 9.14754 269.77 9.14754 276.045 15.4228 276.045 23.1707 276.045 30.9187 269.77 37.1939 262.022 37.1939Z" fill="#FFFFFF" transform="matrix(1.00172 0 0 1 0.00589198 0.16923)"/><path d="M267.922 23.1158C267.922 26.4047 265.256 29.0709 261.967 29.0709 258.678 29.0709 256.012 26.4047 256.012 23.1158 256.012 19.8269 258.678 17.1608 261.967 17.1608 265.256 17.1608 267.922 19.8269 267.922 23.1158Z" fill="#FFFFFF" transform="matrix(1.00172 0 0 1 0.00589198 0.16923)"/><path d="M249.838 92.3078C249.673 77.1778 238.879 64.2615 224.023 61.4074L198.804 57.2636C187.223 55.3609 173.913 59.3584 164.583 66.466L69.1463 133.499C64.3895 136.838 61.6636 142.381 61.9288 148.19L62.2948 177.535C62.496 181.935 66.649 187.15 71.7625 185.036L175.752 139.024 175.752 139.024C175.752 139.024 234.287 147.166 234.287 147.166 242.803 148.346 250.377 141.686 250.277 133.088L249.838 92.3078ZM95.3174 149.626 76.0984 159.99C73.8755 161.225 71.1404 159.634 71.1038 157.1L71.1496 142.381C71.1313 141.229 71.7076 140.149 72.6681 139.518L90.707 128.249C92.875 126.831 95.7565 128.294 95.9028 130.874L97.0371 146.498C97.1103 147.788 96.4425 149.004 95.3082 149.626ZM114.326 162.945C114.326 163.695 113.914 164.381 113.256 164.738L107.255 167.958C105.901 168.69 104.255 167.702 104.255 166.165L104.255 116.274C104.255 115.524 104.666 114.838 105.325 114.481L111.326 111.262C112.679 110.53 114.326 111.518 114.326 113.054L114.326 162.945ZM128.797 155.792C128.797 156.542 128.386 157.228 127.727 157.585L121.726 160.805C120.372 161.536 118.726 160.548 118.726 159.012L118.726 109.121C118.726 108.371 119.138 107.685 119.796 107.328L125.797 104.108C127.151 103.376 128.797 104.364 128.797 105.901L128.797 155.792ZM161.28 116.649 144.147 125.358C141.878 126.51 139.207 124.827 139.262 122.284L139.838 95.9394C139.866 94.7868 140.479 93.7349 141.458 93.1311L157.447 83.4713C159.661 82.1358 162.497 83.6908 162.543 86.2796L163.101 113.576C163.128 114.866 162.415 116.055 161.262 116.64ZM180.097 89.1885 180.545 77.2601C181.899 68.57 188.805 64.3164 196.718 65.1945L226.832 71.6161C235.064 74.1866 241.038 81.0381 241.413 89.0971L241.696 105.389C241.916 110.136 237.333 114.061 232.512 113.146L190.891 104.849C183.747 103.486 178.78 96.1041 180.106 89.1977ZM188.714 133.252C183.838 133.252 179.877 129.3 179.877 124.416 179.877 119.531 183.829 115.579 188.714 115.579 193.599 115.579 197.55 119.531 197.55 124.416 197.55 129.3 193.599 133.252 188.714 133.252ZM234.845 139.537C230.408 139.537 226.804 135.942 226.804 131.496 226.804 127.05 230.399 123.455 234.845 123.455 239.291 123.455 242.885 127.05 242.885 131.496 242.885 135.942 239.291 139.537 234.845 139.537Z" fill="#FFFFFF" transform="matrix(1.00172 0 0 1 0.00589198 0.16923)"/><path d="M93.2592 190.434C89.4538 187.68 88.9324 182.859 88.9324 182.859L102.169 177.362C102.169 177.362 102.654 181.634 101.766 186.756 101.044 190.873 96.2962 192.629 93.2592 190.434Z" fill="#FFFFFF" transform="matrix(1.00172 0 0 1 0.00589198 0.16923)"/><path d="M142.949 171.397C139.143 168.644 138.421 160.997 138.421 160.997L151.657 155.499C151.657 155.499 152.352 162.598 151.456 167.72 150.733 171.837 145.986 173.593 142.949 171.397Z" fill="#FFFFFF" transform="matrix(1.00172 0 0 1 0.00589198 0.16923)"/><path d="M77.2601 196.974C73.4548 194.221 72.9333 189.4 72.9333 189.4L86.1698 183.902C86.1698 183.902 86.6547 188.174 85.7673 193.297 85.0447 197.413 80.2971 199.169 77.2601 196.974Z" fill="#FFFFFF" transform="matrix(1.00172 0 0 1 0.00589198 0.16923)"/><path d="M160.741 165.79C157.548 162.351 157.896 154.109 157.896 154.109L171.361 148.465C171.361 148.465 173.264 156.231 170.044 163.146 168.278 166.933 163.284 168.534 160.731 165.79Z" fill="#FFFFFF" transform="matrix(1.00172 0 0 1 0.00589198 0.16923)"/><path d="M192.437 158.28 178.898 158.28C178.898 158.28 178.898 148.519 178.898 148.519L200.77 151.145C200.633 156.02 196.59 158.28 192.437 158.28Z" fill="#FFFFFF" transform="matrix(1.00172 0 0 1 0.00589198 0.16923)"/><path d="M205.765 158.39 204.521 151.904 224.645 154.566C224.508 159.442 205.765 158.39 205.765 158.39Z" fill="#FFFFFF" transform="matrix(1.00172 0 0 1 0.00589198 0.16923)"/><path d="M116.046 174.389 106.057 178.807C106.121 180.691 106.093 183.756 105.499 187.177 104.977 190.177 102.974 192.656 100.147 193.809 99.0679 194.248 97.9336 194.468 96.8267 194.468 95.0887 194.468 93.3964 193.937 91.9602 192.903L91.9602 192.903C91.1461 192.318 90.4692 191.668 89.8654 190.992 89.774 191.87 89.6551 192.784 89.4904 193.727 88.9598 196.736 86.9657 199.206 84.1391 200.359 83.0597 200.798 81.9345 201.017 80.8185 201.017 79.0805 201.017 77.3882 200.487 75.952 199.453 73.592 197.742 72.2107 195.501 71.4057 193.58 70.7013 193.69 69.997 193.754 69.3018 193.754 66.6581 193.754 64.0511 193.004 61.7185 191.522 58.3979 189.409 55.8732 185.933 54.6749 182.064 55.7817 192.464 57.7759 202.069 60.6482 210.869L119.86 193.489C117.921 188.33 116.677 182.146 116.037 174.389Z" fill="#FFFFFF" transform="matrix(1.00172 0 0 1 0.00589198 0.16923)"/><path d="M53.8516 134.094 115.57 90.7436 115.625 22.6036 53.7418 22.6036 53.8516 134.094Z" fill="#FFFFFF" transform="matrix(1.00172 0 0 1 0.00589198 0.16923)"/><path d="M234.927 131.505C234.927 131.395 234.836 131.313 234.735 131.313 234.634 131.313 234.543 131.404 234.543 131.505 234.543 131.725 234.936 131.725 234.936 131.505Z" fill="#FFFFFF" transform="matrix(1.00172 0 0 1 0.00589198 0.16923)"/><path d="M268.142 68.7163C264.913 72.0277 259.58 72.0094 256.351 68.698 234.744 46.4878 231.131 29.0251 230.564 22.6127L206.387 22.6127 206.369 50.1926 225.459 53.3302C244.084 56.9069 257.741 73.2626 257.952 92.2255L258.391 133.005C258.464 139.5 255.701 145.684 250.826 149.983 245.95 154.273 239.464 156.222 233.024 155.325L227.399 154.539 227.399 154.959C227.362 155.856 227.06 157.173 225.77 158.353 222.834 161.052 215.406 161.564 210.165 161.564 208.619 161.564 207.265 161.518 206.277 161.472 206.277 163.796 206.286 166.01 206.286 168.114L271.691 148.913 271.755 64.8286C270.603 66.1093 269.413 67.3991 268.142 68.7072Z" fill="#FFFFFF" transform="matrix(1.00172 0 0 1 0.00589198 0.16923)"/><path d="M197.623 206.579C188.202 217.41 180.17 221.023 163.174 221.023 150.797 221.023 141.302 217.419 134.085 212.067L69.5762 231.003C73.2626 237.37 77.5894 243.169 82.5657 248.374 101.858 268.572 128.605 278.671 162.826 278.671 197.047 278.671 223.456 268.572 242.748 248.374 260.257 230.052 269.816 204.512 271.435 171.754L204.987 191.257C203.835 197.13 201.667 201.932 197.623 206.579Z" fill="#FFFFFF" transform="matrix(1.00172 0 0 1 0.00589198 0.16923)"/><path d="M288.541 221.005C288.541 224.349 285.83 227.06 282.485 227.06 279.141 227.06 276.429 224.349 276.429 221.005 276.429 217.66 279.141 214.949 282.485 214.949 285.83 214.949 288.541 217.66 288.541 221.005Z" fill="#FFFFFF" transform="matrix(1.00172 0 0 1 0.00589198 0.16923)"/><path d="M297.551 186.61C297.551 189.954 294.84 192.665 291.496 192.665 288.151 192.665 285.44 189.954 285.44 186.61 285.44 183.265 288.151 180.554 291.495 180.554 294.84 180.554 297.551 183.265 297.551 186.61Z" fill="#FFFFFF" transform="matrix(1.00172 0 0 1 0.00589198 0.16923)"/></g></svg>